<svg xmlns="http://www.w3.org/2000/svg" viewBox="0 0 256 256" focusable="false" color="var(--token-dee97563-d4f8-43c9-b195-2c7f5528b61a, rgb(255, 255, 255)) /* {&quot;name&quot;:&quot;White&quot;} */" style="user-select: none; width: 100%; height: 100%; display: inline-block; fill: var(--token-dee97563-d4f8-43c9-b195-2c7f5528b61a, rgb(255, 255, 255)); color: var(--token-dee97563-d4f8-43c9-b195-2c7f5528b61a, rgb(255, 255, 255)); flex-shrink: 0;"><g color="var(--token-dee97563-d4f8-43c9-b195-2c7f5528b61a, rgb(255, 255, 255)) /* {&quot;name&quot;:&quot;White&quot;} */" weight="regular"><path d="M200,24H56A16,16,0,0,0,40,40V216a16,16,0,0,0,16,16H200a16,16,0,0,0,16-16V40A16,16,0,0,0,200,24ZM152,144h48v24H112V144Zm8-16V104h40v24Zm40-88V88H152a8,8,0,0,0-8,8v32H104a8,8,0,0,0-8,8v32H56V40Zm0,176H56V184H200v32Z"></path></g></svg>
