<svg xmlns="http://www.w3.org/2000/svg" viewBox="0 0 256 256" focusable="false" color="var(--token-dee97563-d4f8-43c9-b195-2c7f5528b61a, rgb(255, 255, 255)) /* {&quot;name&quot;:&quot;White&quot;} */" style="user-select: none; width: 100%; height: 100%; display: inline-block; fill: var(--token-dee97563-d4f8-43c9-b195-2c7f5528b61a, rgb(255, 255, 255)); color: var(--token-dee97563-d4f8-43c9-b195-2c7f5528b61a, rgb(255, 255, 255)); flex-shrink: 0;"><g color="var(--token-dee97563-d4f8-43c9-b195-2c7f5528b61a, rgb(255, 255, 255)) /* {&quot;name&quot;:&quot;White&quot;} */" weight="regular"><path d="M216,72H56a8,8,0,0,1,0-16H192a8,8,0,0,0,0-16H56A24,24,0,0,0,32,64V192a24,24,0,0,0,24,24H216a16,16,0,0,0,16-16V88A16,16,0,0,0,216,72Zm0,128H56a8,8,0,0,1-8-8V86.63A23.84,23.84,0,0,0,56,88H216Zm-48-60a12,12,0,1,1,12,12A12,12,0,0,1,168,140Z"></path></g></svg>
