<?xml version="1.0" encoding="utf-8"?>
<!-- Generator: Adobe Illustrator 28.4.1, SVG Export Plug-In . SVG Version: 6.00 Build 0)  -->
<svg version="1.1" id="Layer_1" xmlns="http://www.w3.org/2000/svg" xmlns:xlink="http://www.w3.org/1999/xlink" x="0px" y="0px"
	 viewBox="0 0 512 640" style="enable-background:new 0 0 512 640;" xml:space="preserve">
<path d="M256.7,94.3C274.1,69,329.6-11.4,358.9,22.8c46.5,54.3,55.3,134,81.4,201.6c9.9-6,17.7-14.8,28.8-19
	c15.2-5.8,27.8,8,18.6,21.6c-40.6,60.1-111.7,87.1-181.3,99.2c-109.3,18.5-214.9-7-281.3-100.6c-9-12.7-0.8-34.1,15.8-25.4
	c16.8,8.8,29.2,23.8,44.4,35.1c21.5-64.6,44-130.5,82.4-187C198.4,2.8,237.3,69.9,256.7,94.3z M131,180.4
	c85,34.2,175.2,38.1,257.8-4.1c3.3-1.6,4.7-3,3.3-7.1c-14.8-42.1-24.8-86-46-125.4c-2.2-4.2-7.8-5.1-11.3-2
	c-24.7,22.3-44,48-65.4,72c6.7,14,35.4,40.6,21,54.5c-5,3-9.8,1.4-13.5-2.1c-32.2-32.9-52.1-76-82.1-110.9c-2.4-2.8-6.9-2.4-8.7,0.9
	C164.1,95.1,150.2,137.9,131,180.4z M402.4,198.7c-86.3,46.7-193.8,53-280,3.9c-7.8,9.6-23,43.2-16.6,48.4
	c86.8,61.7,205.4,47.4,296.4,1.3c4.5-3.2,12.7-5.4,14-11.1C411.8,227.3,407.2,213.6,402.4,198.7z M217.2,393
	c21.5-11.5,44.3-11.7,68.1-1.6c18.2-48.7,74.1-73.1,119.5-49.1c67,35.3,49.8,146.5-28.4,154.6c-56.8,5.9-86.8-28.3-99-79.2
	c-15-8.3-53.7-9.5-60.7,8.5c-7.4,51.6-57.1,85.7-108.8,55.7C-18.3,408.7,149.8,258.1,217.2,393z M358.5,469.3
	c60.9,7.2,86.8-75.2,32.2-102C305.1,325.2,266.2,453.3,358.5,469.3z M191,413.6c0.8-64.1-117.8-62.9-101.7,8
	C104.3,478,189.6,477.5,191,413.6z"/>
</svg>
