<svg xmlns="http://www.w3.org/2000/svg" version="1.1" data-icon="bold" fill="#fff" data-container-transform="translate(1)" viewBox="0 0 16 20" x="0px" y="0px"><path d="M3 15" transform="translate(1)"/><path d="M11.2 7.3c1.1-.7 1.8-1.9 1.8-3.3 0-2.2-1.8-4-4-4h-9v1h1c.6 0 1 .4 1 1v12c0 .6-.4 1-1 1h-1v1h9.5c2.5 0 4.5-2 4.5-4.5 0-1.9-1.2-3.5-2.8-4.2zm-4.2-6.3c1.7 0 3 1.3 3 3s-1.3 3-3 3h-2v-6h2zm.5 14h-2.5v-7h2.5c1.9 0 3.5 1.6 3.5 3.5s-1.6 3.5-3.5 3.5z" transform="translate(1)"/><text x="0" y="31" fill="#000000" font-size="5px" font-weight="bold" font-family="'Helvetica Neue', Helvetica, Arial-Unicode, Arial, Sans-serif">Created by useiconic.com</text><text x="0" y="36" fill="#000000" font-size="5px" font-weight="bold" font-family="'Helvetica Neue', Helvetica, Arial-Unicode, Arial, Sans-serif">from the Noun Project</text></svg>
