<svg fill="#F1F6F9" version="1.1" id="Capa_1" xmlns="http://www.w3.org/2000/svg" xmlns:xlink="http://www.w3.org/1999/xlink" viewBox="0 0 29.538 29.538" xml:space="preserve"><g id="SVGRepo_bgCarrier" stroke-width="0"></g><g id="SVGRepo_tracerCarrier" stroke-linecap="round" stroke-linejoin="round"></g><g id="SVGRepo_iconCarrier"> <g> <path d="M11.305,0.807L11.544,0h14.422l-0.284,0.807c-1.307,0-2.305,0.289-2.994,0.871c-0.688,0.58-1.297,1.793-1.818,3.637 l-5.401,18.908c-0.394,1.336-0.589,2.23-0.589,2.68c0,0.523,0.204,0.931,0.609,1.222c0.521,0.377,1.512,0.58,2.964,0.608 l-0.22,0.806H3.572l0.24-0.806c1.467,0,2.541-0.28,3.225-0.838c0.683-0.561,1.3-1.783,1.852-3.672l5.446-18.908 c0.333-1.162,0.501-2.041,0.501-2.635c0-0.537-0.203-0.959-0.609-1.266C13.817,1.11,12.844,0.909,11.305,0.807z"></path> </g> </g></svg>
