<svg xmlns="http://www.w3.org/2000/svg" width="64" height="64" id="chikorita"><defs><filter id="a" width="1.127" height="1.166" x="-.064" y="-.083" color-interpolation-filters="sRGB"><feGaussianBlur stdDeviation="3.2"></feGaussianBlur></filter><filter id="b" width="1.123" height="1.073" x="-.061" y="-.036" color-interpolation-filters="sRGB"><feGaussianBlur stdDeviation=".835"></feGaussianBlur></filter><filter id="c" width="1.179" height="1.066" x="-.089" y="-.033" color-interpolation-filters="sRGB"><feGaussianBlur stdDeviation=".652"></feGaussianBlur></filter><filter id="d" width="1.73" height="1.327" x="-.365" y="-.163" color-interpolation-filters="sRGB"><feGaussianBlur stdDeviation=".979"></feGaussianBlur></filter></defs><g transform="translate(0 -988.362)"><ellipse cx="22.604" cy="1048.12" fill="#e8edf1" rx="20.22" ry="4.831"></ellipse><path fill="#cedea7" fill-rule="evenodd" d="m19.105 1012.866-1.045.7-1.106.966-.778.822-.758 1.193-.513.987-.676 1.85-.102.864-.143 1.069v1.5l.286 2.406.349 1.275-1.086.76-1.23.988-1.515 1.685-1.107 1.79-.655 1.603-.533 1.81-.184 1.541-.082 1.686.102.884.205 1.008.922 2.631.553.843.43.617.492.185.574.123h.696l.328-.246.737-.7.267-.472.184-.206.082-.062.02.638.144 1.521.492 1.768.635 1.398.696.946.615.493.697.412.573.062.512-.062.82-.432.369-.555.553-1.07.082-.431.655-1.275 1.107-1.336 1.495-.163 2.13-.124 2.629-.232.956-.175 1.137-.276.13.051.45.313 1.44 1.185 1.681 1.22 1.456.779.934.327 1.413.218.485-.08.319-.247.188-.306.087-.458.015-.698-.16-1.09-.375-1.519-.482-1.306-.594-1.13-.85-1.727-.615-1.79-.174-.924-.072-.874.123-1.604.03-.123.544-.206.573-.339.246-.35-.03-.287-.195-.319-.287-.236-.696-.494-.256-.195-.072-2.519-.051-2.426-.072-1.87-.195-1.728-.389-1.881-.635-2.046-1.096-2.447-1.485-2.22-1.721-1.707-1.148-.832-1.342-.658-1.188-.39-1.403-.165-.932.04-1.311.206-.871.401-.82.504-.82.822-.644.925-.185.247-.03-.216.071-.37.092-.431.072-.247z"></path><path fill="#86c479" fill-rule="evenodd" d="m19.023 1014.12.144-1.007.594-1.439.88-1.974.513-1.645.471-1.624.113-.54.604-.997.39-.658.691-.92 1.08-1.28 1.267-1.221 1.53-1.25 1.7-1.111 1.572-.866 1.739-.713 1.39-.552 1.127-.353 1.039-.232 1.434-.426 1.087-.123 1.115-.044.312-.05.927-.124.941-.117 1.68-.225 1.442-.305 1.753-.4 1.594-.465 1.238-.48 1.108-.545.848-.436.92-.662.47-.472.305-.371.145-.342.152.131.058.269.26 1.505-.036.538.022 1.17-.044.887-.123 1.25-.39 1.796-.19.995-.463 1.323-.825 1.847-.558.908-1.13 1.454-1.029 1.12-1.217 1.054-1.166.792-1.246.683-1.854.742-1.438.386-1.291.144-1.68.062-1.06.106-.477-.076-.312-.03-.674-.09-1.369-.276-.93-.153-.927-.185-.971-.2-.898-.233-1.22-.334-.153.022-.304-.08-.29-.022-1.137-.117-.674.058-.579-.022-.427.102-.478.11-1.061.31-1.03.596-.425.205-.486.38-1.004.856-.297.64.022.174.406.327-1.12.553-.87.71-.707.904z"></path><path fill="none" stroke="#000" stroke-linecap="round" stroke-linejoin="round" stroke-width=".653" d="M53.523 994.98c0 .792-.24 1.516-.359 2.274-1.073 6.819-7.016 11.994-13.9 11.994-.415 0-.846.084-1.252.047-.42-.038-.959-.076-1.368-.152"></path><path fill="none" stroke="#000" stroke-linecap="round" stroke-linejoin="round" stroke-width=".653" d="M53.266 990.096c.243.766.38 1.632.38 2.549 0 .717.018 1.752-.134 2.383m-.3-4.96c-.697 2.124-5.97 4.24-12.534 4.909-.397.04-.892.133-1.281.16m-3.691.64a10.79 10.79 0 0 1 3.6-.633h.07"></path><path fill="none" stroke="#000" stroke-width=".653" d="M18.982 1014.347c.306-2.817 1.236-2.317 2.746-8.389 2.7-5.152 7.771-8.663 13.94-10.198"></path><path fill="none" stroke="#000" stroke-linecap="round" stroke-width=".653" d="M18.994 1014.279c1.55-2.569 2.169-2.335 3.326-3.02"></path><path fill="#69a168" fill-rule="evenodd" d="M1322.293-1552.795c-80.187 48.356-9.765 70.403 40.714 69.821 29.428-29.285 42.918-63.488 43.513-92.774z" filter="url(#a)" transform="matrix(.16225 0 0 .16283 -175.398 1249.056)"></path><path fill="none" stroke="#000" stroke-linecap="round" stroke-width=".653" d="M21.769 1008.302c2.832-6.168 9.347-8.412 14.34-8.635"></path><path fill="none" stroke="#000" stroke-linecap="round" stroke-linejoin="round" stroke-width=".653" d="M22.247 1011.282c-.083-.065-.358-.23-.388-.32-.232-.7 1.266-1.94 3.477-2.956m.028.027c.617-.297 1.635-.492 2.786-.492.71 0 1.37.074 1.917.201"></path><path fill="none" stroke="#000" stroke-width=".653" d="M30.12 1007.697c2.15.756 4.385 1.005 6.584 1.469"></path><path fill="none" stroke="#000" stroke-linecap="round" stroke-width=".653" d="M41.876 999.592c6.63-1.838 9.732-5.017 11.329-8.926"></path><path fill="#fff" fill-rule="evenodd" d="m1226.88-1357.594-2.95-5.409-2.787-16.063.106-7.738 1.101-6.375.58-4.752 2.608-6.896 3.825-5.621 4.346-2.376 4.868.521 3.593 1.797 1.854 2.376 3.622 4.868 1.188 3.564 3.333 8.924 1.159 6.839.463 6.23-.203 6.925-.637 6.432-.927.84-6.694 2.319-2.868.811-6.723 1.768-2.115.405z" filter="url(#b)" transform="matrix(.16225 0 0 .16283 -175.398 1249.056)"></path><path fill="none" stroke="#000" stroke-linecap="round" stroke-linejoin="round" stroke-width=".653" d="M22.314 1011.25c.66-.18 1.34-.275 2.036-.275 6.065 0 10.98 7.18 10.98 16.037 0 .136 0 .27-.003.406m-21.244-6.587c.126-3.36 2.574-6.767 5.128-7.998"></path><path fill="#79b76a" fill-rule="evenodd" d="m17.955 1033.49-.247.778-.203.712-.029.465.203.233.413.029.739-.117.536-.145.239-.094.058-.036-.55-.545-.616-.698-.457-.596z"></path><path fill="#fff" fill-rule="evenodd" d="m1174.018-1358.085 11.064 2.048.492-6.31-1.803-10.9-.983-8.032-1.066-6.393-1.885-6.966-2.295-5.491-2.294-3.114-1.803-.492-1.23.246-1.311 2.622-2.459 9.507-.41 9.015 1.148 7.049 3.114 12.62z" filter="url(#c)" transform="matrix(.16225 0 0 .16283 -175.398 1249.056)"></path><path fill="none" stroke="#000" stroke-linecap="round" stroke-linejoin="round" stroke-width=".653" d="M20.182 1035.77c-1.5-1.195-3.477-3.784-4.699-6.773-.88-2.156-1.407-4.2-1.362-5.777"></path><path fill="none" stroke="#000" stroke-linecap="round" stroke-linejoin="round" stroke-width=".653" d="M10.398 1044.26c-1.373-1.716-2.13-4.145-2.13-6.636 0-4.697 2.544-8.817 6.364-11.125m5.383 21.085c-.33 1.448-1.08 2.396-2.045 2.577-1.643.31-3.485-1.986-3.979-5.096"></path><path fill="none" stroke="#000" stroke-linecap="round" stroke-width=".653" d="M14.106 1039.06a17.969 17.969 0 0 0-.143 5.921"></path><path fill="none" stroke="#000" stroke-width=".653" d="M19.987 1047.641c.584-1.21 1.204-1.96 1.826-2.675m-.102.058c2.74-.312 5.56-.124 8.475-.96"></path><path fill="none" stroke="#000" stroke-linecap="round" stroke-linejoin="round" stroke-width=".653" d="M37.562 1042.177c1.067 2.546 1.772 5.923.31 5.957-2.116.05-3.913-.914-7.03-3.556-.161-.136-.536-.343-.664-.505"></path><path fill="none" stroke="#000" stroke-linecap="round" stroke-width=".653" d="M37.546 1042.15c-1.508-2.617-2.53-5.023-2.01-7.778m-.202-6.938.115 4.449m-17.446 1.525s-.542 1.323-.536 1.963c.007.712 2.13-.014 2.13-.014"></path><path fill="none" stroke="#000" stroke-linecap="round" stroke-linejoin="round" stroke-width=".653" d="M23.74 1037.35c0 .637-.697.98-1.188 1.152-.73.255-1.164-.426-1.188-1.151-.022-.636.532-1.151 1.188-1.151.656 0 1.187.515 1.187 1.15z"></path><ellipse cx="27.874" cy="1038.505" fill="none" stroke="#000" stroke-linecap="round" stroke-linejoin="round" stroke-width=".653" rx="1.28" ry="1.141"></ellipse><path fill="none" stroke="#000" stroke-linecap="round" stroke-linejoin="round" stroke-width=".653" d="M31.286 1036.478c0 .637.682 1.272 1.188 1.152 1.292-.309 1.272-.535 1.188-1.152-.085-.63-.532-1.15-1.188-1.15-.656 0-1.188.515-1.188 1.15z"></path><path fill="none" stroke="#000" stroke-width=".653" d="M35.488 1031.91c-.549.651-1.059 1.32-.435 2.501 0 0 1.922-.426 1.94-1.116.018-.624-1.505-1.384-1.505-1.384z"></path><path fill="none" stroke="#000" stroke-linecap="round" stroke-width=".653" d="M34.88 1036.655c-.824 2.518-2 4.062-3.257 5.386m-12.21-2.2a7.876 7.876 0 0 1 1.413 2.468m-7.15.699c-.76 1.244-1.591 2.318-3.319 1.192m1.455-5.51c.496 1.816 1.316 2.246 2.008 3.228m-2.807-10.568c-.412 1.265-.8 2.542-.41 4.236m7.226-6.86c-.013 1.58 1.447 1.028 2.11 1.166 1.461.305 2.685-.08 3.047-.642"></path><path fill="none" stroke="#000" stroke-linecap="round" stroke-linejoin="round" stroke-width=".653" d="M23.23 1027.194a10.661 10.661 0 0 1-.471-2.503c-.217-3.035.779-5.58 2.223-5.684 1.445-.103 2.791 2.273 3.008 5.309.066.92.02 1.796-.116 2.572"></path><path fill="none" stroke="#000" stroke-width=".653" d="M24.76 1027.917a14.739 14.739 0 0 0 3.114-.987"></path><path fill="#944a55" fill-rule="evenodd" d="m16.063 1021.954-.318-.175-.327.092-.236.69-.225 1.366-.01.987.102.668.205 1.039.317.637.41.586.143.216.728.195.133-.596-.123-1.007-.318-2.026-.266-1.82z"></path><path fill="none" stroke="#000" stroke-linecap="round" stroke-width=".653" d="m15.95 1028.04.943.206"></path><path fill="none" stroke="#000" stroke-linecap="round" stroke-linejoin="round" stroke-width=".653" d="M14.25 1024.954c-.255-2.35.147-4.42.747-4.498.6-.078 1.293 1.763 1.548 4.112.154 1.418.543 2.8.354 3.608"></path><path fill="#944a55" fill-rule="evenodd" d="m26.516 1027.464-.58-.335-.81-1.265-.435-1.453-.13-1.585.173-1.09.29-.844.52-.521.532-.062.358.113.313.231.415.432.25.478.318.936.19.997.092 1.054-.03 1.32-.35 1.178z"></path><path fill="none" stroke="#000" stroke-linecap="round" stroke-linejoin="round" stroke-width=".653" d="M26.408 1027.404c-.778-.318-1.508-1.63-1.75-3.275-.29-1.979.235-3.691 1.173-3.825.939-.134 1.86 1.257 2.092 3.31.154 1.355.147 2.647-.275 3.337m-11.746-5.1c-.07-.066-.143-.102-.218-.102-.445 0-.722 1.28-.751 2.864.152 1.44.447 2.768 1.172 3.372"></path><path fill="none" stroke="#000" stroke-linecap="round" stroke-width=".653" d="M10.409 1044.252c.654-.593 1.323-.886 2.058.123m4.058 5.432c.297-.442 1.551-.939 2.434-.16m17.284-1.695c.558-1.204 1.453-1.22 2.417-.987m-24.556-26.396a16.168 16.168 0 0 0 .032 2.852"></path><path fill="#79b76a" stroke="#000" stroke-linecap="round" stroke-linejoin="round" stroke-width=".653" d="M23.74 1037.35c0 .637-.697.98-1.188 1.152-.73.255-1.164-.426-1.188-1.151-.022-.636.532-1.151 1.188-1.151.656 0 1.187.515 1.187 1.15z"></path><ellipse cx="27.874" cy="1038.505" fill="#79b76a" stroke="#000" stroke-linecap="round" stroke-linejoin="round" stroke-width=".653" rx="1.28" ry="1.141"></ellipse><path fill="#79b76a" stroke="#000" stroke-linecap="round" stroke-linejoin="round" stroke-width=".653" d="M31.286 1036.478c0 .637.682 1.272 1.188 1.152 1.292-.309 1.272-.535 1.188-1.152-.085-.63-.532-1.15-1.188-1.15-.656 0-1.188.515-1.188 1.15z"></path><path fill="#79b76a" fill-rule="evenodd" stroke="#000" stroke-width=".653" d="M35.488 1031.91c-.549.651-1.059 1.32-.435 2.501 0 0 1.922-.426 1.94-1.116.018-.624-1.505-1.384-1.505-1.384z"></path><ellipse cx="1343.87" cy="-1355.598" fill="#592f3e" filter="url(#d)" rx="3.22" ry="7.197" transform="matrix(.27954 -.03154 .04602 .33236 -287.052 1516.22)"></ellipse><ellipse cx="1239.824" cy="-1393.983" fill="#fff" filter="url(#d)" rx="3.22" ry="7.197" transform="matrix(.16038 -.02465 .02456 .16095 -138.636 1277.31)"></ellipse><ellipse cx="1343.87" cy="-1355.598" fill="#592f3e" filter="url(#d)" rx="3.22" ry="7.197" transform="matrix(.1743 -.02674 .0287 .2818 -179.543 1442.76)"></ellipse><ellipse cx="1178.396" cy="-1385.412" fill="#fff" filter="url(#d)" rx="3.22" ry="7.197" transform="matrix(.11276 0 0 .14667 -117.238 1226.784)"></ellipse><path fill="none" stroke="#000" stroke-linecap="round" stroke-width=".653" d="m26.368 1027.491 1.476-.556"></path></g></svg>