<svg xmlns="http://www.w3.org/2000/svg" xmlns:xlink="http://www.w3.org/1999/xlink" width="500" zoomAndPan="magnify" viewBox="0 0 375 374.999991" height="500" preserveAspectRatio="xMidYMid meet" version="1.0"><rect x="-37.5" width="450" fill="#ffffff" y="-37.499999" height="449.999989" fill-opacity="1"/><rect x="-37.5" width="450" fill="#000000" y="-37.499999" height="449.999989" fill-opacity="1"/><path fill="#ffffff" d="M 82.417969 299.375 L 86.378906 303.289062 L 86.777344 303.6875 C 99.097656 316.445312 98.964844 336.996094 86.378906 349.582031 C 73.792969 362.164062 53.246094 362.296875 40.484375 349.976562 L 40.089844 349.582031 L 36.128906 345.664062 L 25.347656 334.839844 C 12.628906 322.121094 12.628906 301.308594 25.347656 288.550781 C 38.0625 275.832031 58.921875 275.832031 71.636719 288.550781 Z M 300.761719 120.28125 L 349.339844 71.703125 C 362.058594 58.984375 362.058594 38.171875 349.339844 25.410156 C 336.578125 12.695312 315.765625 12.695312 303.050781 25.410156 L 231.324219 97.136719 C 218.609375 109.851562 218.609375 130.667969 231.324219 143.425781 L 254.46875 166.574219 L 258.605469 170.664062 L 303.355469 215.417969 C 316.074219 228.132812 336.886719 228.132812 349.648438 215.417969 C 362.363281 202.699219 362.363281 181.84375 349.648438 169.125 L 304.898438 124.375 Z M 27.195312 25.71875 L 27.195312 25.675781 C 39.914062 12.960938 60.769531 12.960938 73.488281 25.675781 L 349.03125 301.265625 C 361.792969 313.984375 361.792969 334.839844 349.03125 347.558594 C 336.316406 360.273438 315.503906 360.273438 302.742188 347.558594 L 27.195312 71.96875 C 14.480469 59.25 14.480469 38.4375 27.195312 25.71875 Z M 26.800781 157.640625 C 39.515625 144.921875 60.328125 144.921875 73.089844 157.640625 L 172.359375 256.910156 L 217.113281 301.660156 C 229.828125 314.378906 229.828125 335.234375 217.113281 347.953125 C 204.351562 360.667969 183.539062 360.667969 170.820312 347.953125 L 58.171875 235.304688 L 26.800781 203.929688 C 14.082031 191.214844 14.082031 170.355469 26.800781 157.640625 Z M 26.800781 157.640625 " fill-opacity="1" fill-rule="evenodd"/></svg>
